<?xml version="1.0" encoding="utf-8"?>
<!-- Generator: Adobe Illustrator 23.0.0, SVG Export Plug-In . SVG Version: 6.00 Build 0)  -->
<svg version="1.1" id="Layer_1" xmlns="http://www.w3.org/2000/svg" xmlns:xlink="http://www.w3.org/1999/xlink" x="0px" y="0px"
	 viewBox="0 0 393 393.1" style="enable-background:new 0 0 393 393.1;" xml:space="preserve">
<style type="text/css">
	.st0{opacity:0.99;fill:url(#SVGID_1_);}
	.st1{fill:url(#SVGID_2_);}
	.st2{fill:url(#SVGID_3_);}
	.st3{fill:url(#SVGID_4_);}
</style>
<g>
	<radialGradient id="SVGID_1_" cx="231.8317" cy="164.9778" r="188.2967" gradientUnits="userSpaceOnUse">
		<stop  offset="0" style="stop-color:#FFD300"/>
		<stop  offset="0.6753" style="stop-color:#FFA600"/>
		<stop  offset="1" style="stop-color:#FFA400"/>
	</radialGradient>
	<path class="st0" d="M246.97,150.13c6.41,5.32,10.49,13.34,10.49,22.32c0,16.01-12.98,29-29,29c-16.01,0-29-12.98-29-29
		c0-16.01,12.98-29,29-29c6.92,0,13.27,2.43,18.26,6.48c-10.72-8.59-24.32-13.75-39.14-13.75c-34.59,0-62.64,28.04-62.64,62.64
		c0,34.59,28.04,62.64,62.64,62.64c34.59,0,62.64-28.04,62.64-62.64C270.22,179.16,261.15,161.61,246.97,150.13z"/>
	
		<radialGradient id="SVGID_2_" cx="197.6732" cy="209.117" r="301.0659" fx="164.3852" fy="209.5255" gradientUnits="userSpaceOnUse">
		<stop  offset="0" style="stop-color:#FFD300"/>
		<stop  offset="0.6753" style="stop-color:#FFA600"/>
		<stop  offset="1" style="stop-color:#FFA400"/>
	</radialGradient>
	<path class="st1" d="M329.03,173.89c-21.9-3.13-40.96-14.61-52.77-23.33c-3.98-3.7-8.16-7.18-12.55-10.41c0,0-0.03-0.03-0.03-0.03
		l0,0c-16.01-11.77-34.65-20.12-54.83-24.22c-17.12-2.93-32.11-3.12-44.81-1.85c-3.47,0.42-6.92,0.93-10.31,1.59
		c0.06-0.07,0.11-0.14,0.17-0.21c-15.25,2.64-26.33,7.18-32.91,10.51c-0.6,0.47-1.2,0.91-1.77,1.34c-5.04,2.47-9.9,5.25-14.57,8.3
		c-0.01,0-0.05,0.01-0.05,0.01h0.03c-38.4,24.98-63.81,68.23-63.81,117.45c0,77.35,62.7,140.05,140.05,140.05
		c77.35,0,140.05-62.7,140.05-140.05c0-12.06-1.53-23.76-4.39-34.93c0,0,0,0,0,0C342.28,178.85,329.03,173.89,329.03,173.89z
		 M202.34,278.28c-41.32,0-74.81-33.49-74.81-74.81s33.49-74.81,74.81-74.81c41.32,0,74.81,33.49,74.81,74.81
		S243.66,278.28,202.34,278.28z"/>
	<g>
		<linearGradient id="SVGID_3_" gradientUnits="userSpaceOnUse" x1="264.5525" y1="33.4559" x2="189.7426" y2="128.2731">
			<stop  offset="0" style="stop-color:#FFD300"/>
			<stop  offset="0.6753" style="stop-color:#FFA600"/>
			<stop  offset="1" style="stop-color:#FFA400"/>
		</linearGradient>
		<path class="st2" d="M298.11,81.19c-70.74-5.81-93.36-81.18-93.36-81.18c-34,78.32-65.17,111.87-83.3,125.96
			c6.61-3.34,17.68-7.86,32.88-10.47c30.45-37.82,48.4-91.72,48.4-91.72c51.29,89.32,92.49,78.88,92.49,78.88
			C305.07,96.85,298.11,81.19,298.11,81.19z M181.06,113.1c-6.26,0-12.42,0.42-18.44,1.25c13.47-1.53,29.61-1.46,48.23,1.91
			c-5.36-1.18-10.86-2.02-16.42-2.54c15.83-10.96,29.26-26.06,39.88-40.81l-6.4-8.11C207.33,95.04,190.38,107.85,181.06,113.1z"/>
		<linearGradient id="SVGID_4_" gradientUnits="userSpaceOnUse" x1="297.8884" y1="59.7577" x2="223.0785" y2="154.5748">
			<stop  offset="0" style="stop-color:#FFD300"/>
			<stop  offset="0.6753" style="stop-color:#FFA600"/>
			<stop  offset="1" style="stop-color:#FFA400"/>
		</linearGradient>
		<path class="st3" d="M349.87,79.16C280.71,69.59,263.31,0,263.31,0c-8.82,19.54-17.41,35.8-25.58,49.38l0.01,0
			c0,0,3.05,3.82,7.57,6.9c11.31-18.5,17.43-33.23,17.43-33.23c44.5,85.25,81.91,78.72,81.91,78.72
			C357.7,95.25,349.87,79.16,349.87,79.16z"/>
	</g>
</g>
</svg>
